<?xml version="1.0" standalone="no"?><!DOCTYPE svg PUBLIC "-//W3C//DTD SVG 1.1//EN" "http://www.w3.org/Graphics/SVG/1.1/DTD/svg11.dtd"><svg t="1626775258025" class="icon" viewBox="0 0 1024 1024" version="1.1" xmlns="http://www.w3.org/2000/svg" p-id="2024" xmlns:xlink="http://www.w3.org/1999/xlink" width="200" height="200"><defs><style type="text/css"></style></defs><path d="M0 1.3H1024.6V1024H0z" fill="#FFFFFF" p-id="2025"></path><path d="M775.7 502.9c-19.8-25.7-40.5-75.9-7.5-123.7-78.6 6.8-164.7 10.6-255 10.6-90.3 0-176.4-3.8-255-10.6 32.9 47.8 12.3 98-7.5 123.7-45.5 59.1-90.4 12-90.4 83.3 0 153.3 158 277.6 352.9 277.6 194.9 0 352.9-124.3 352.9-277.6-0.1-71.3-44.9-24.2-90.4-83.3z" fill="#FF8E31" p-id="2026"></path><path d="M441.3 704.4h-33.1c-7.3 0-13.2-5.9-13.2-13.2 0-7.3 5.9-13.2 13.2-13.2h19.8v-40.1h-32.1c-7.3 0-13.2-5.9-13.2-13.2V584c0-7.3 5.9-13.2 13.2-13.2h32.1v-18.5h-32.1c-7.3 0-13.2-5.9-13.2-13.2 0-7.3 5.9-13.2 13.2-13.2h45.3c7.3 0 13.2 5.9 13.2 13.2v45c0 7.3-5.9 13.2-13.2 13.2h-32.1v14.2h32.1c7.3 0 13.2 5.9 13.2 13.2v66.5c0.1 7.3-5.8 13.2-13.1 13.2zM613.2 704.4h-33.1c-7.3 0-13.2-5.9-13.2-13.2 0-7.3 5.9-13.2 13.2-13.2h19.8v-40.1h-32.1c-7.3 0-13.2-5.9-13.2-13.2V584c0-7.3 5.9-13.2 13.2-13.2h32.1v-18.5h-32.1c-7.3 0-13.2-5.9-13.2-13.2 0-7.3 5.9-13.2 13.2-13.2h45.3c7.3 0 13.2 5.9 13.2 13.2v45c0 7.3-5.9 13.2-13.2 13.2h-32.1v14.2h32.1c7.3 0 13.2 5.9 13.2 13.2v66.5c0.1 7.3-5.8 13.2-13.1 13.2zM503.6 704.4c-7.3 0-13.2-5.9-13.2-13.2V539c0-7.3 5.9-13.2 13.2-13.2 7.3 0 13.2 5.9 13.2 13.2v152.2c0 7.3-5.9 13.2-13.2 13.2zM474 563.7c-3.4 0-6.8-1.3-9.3-3.9l-3.5-3.5c-5.2-5.2-5.2-13.5 0-18.7 5.1-5.2 13.5-5.2 18.7 0l3.5 3.5c5.2 5.2 5.2 13.5 0 18.7-2.6 2.6-6 3.9-9.4 3.9z" fill="#FFFFFF" p-id="2027"></path><path d="M474 563.7c-3.4 0-6.8-1.3-9.3-3.9l-3.5-3.5c-5.2-5.2-5.2-13.5 0-18.7 5.1-5.2 13.5-5.2 18.7 0l3.5 3.5c5.2 5.2 5.2 13.5 0 18.7-2.6 2.6-6 3.9-9.4 3.9zM537.2 563.7c-3.4 0-6.8-1.3-9.3-3.9l-3.5-3.5c-5.2-5.2-5.2-13.5 0-18.7 5.2-5.2 13.5-5.2 18.7 0l3.5 3.5c5.2 5.2 5.2 13.5 0 18.7-2.6 2.6-6 3.9-9.4 3.9z" fill="#FFFFFF" p-id="2028"></path><path d="M537.2 563.7c-3.4 0-6.8-1.3-9.3-3.9l-3.5-3.5c-5.2-5.2-5.2-13.5 0-18.7 5.2-5.2 13.5-5.2 18.7 0l3.5 3.5c5.2 5.2 5.2 13.5 0 18.7-2.6 2.6-6 3.9-9.4 3.9zM531.1 606.3h-55c-7.3 0-13.2-5.9-13.2-13.2s5.9-13.2 13.2-13.2h55c7.3 0 13.2 5.9 13.2 13.2s-5.9 13.2-13.2 13.2zM470.3 655.2c-1.8 0-3.6-0.4-5.3-1.1-6.7-2.9-9.7-10.7-6.8-17.4l3.8-8.7c2.9-6.7 10.8-9.7 17.4-6.8 6.7 2.9 9.7 10.7 6.8 17.4l-3.8 8.7c-2.1 5-7 7.9-12.1 7.9zM539.9 653.7c-4.3 0-8.5-2.1-11.1-5.9l-6.4-9.7c-4-6.1-2.3-14.3 3.8-18.3s14.3-2.3 18.3 3.8l6.4 9.7c4 6.1 2.3 14.3-3.8 18.3-2.2 1.4-4.7 2.1-7.2 2.1z" fill="#FFFFFF" p-id="2029"></path><path d="M334.5 327.6c-0.5 0-1.1 0-1.6-0.1-9.3-1.1-18.3-2.3-27-3.6-7.2-1.1-12.2-7.8-11.2-15 1.1-7.2 7.8-12.2 15-11.2 8.5 1.2 17.3 2.4 26.3 3.5 7.3 0.9 12.4 7.5 11.5 14.7-0.7 6.7-6.4 11.7-13 11.7z" fill="#000202" p-id="2030"></path><path d="M510.3 337.4c-42.7 0-84.5-1.6-124.2-4.7-7.3-0.6-12.7-6.9-12.2-14.2 0.6-7.3 6.9-12.7 14.2-12.2 39 3.1 80.1 4.6 122.1 4.6 219.8 0 339.7-40.2 339.7-60.8 0-20.6-119.9-60.8-339.7-60.8s-339.7 40.2-339.7 60.8c0 4.3 11.7 18.5 65.1 32.8 5.5 1.5 11.2 2.9 17.2 4.3 7.1 1.6 11.6 8.7 9.9 15.8-1.6 7.1-8.7 11.6-15.8 9.9-6.3-1.4-12.4-3-18.2-4.5-57-15.3-84.7-34.4-84.7-58.4 0-69 239.5-87.3 366.1-87.3 126.6 0 366.1 18.2 366.1 87.3 0.3 69.2-239.2 87.4-365.9 87.4z" fill="#000202" p-id="2031"></path><path d="M510.3 877.1c-201.9 0-366.1-130.5-366.1-290.8 0-46 18-54.1 43.4-60.4 15-3.8 32.1-8 49.7-31 6.5-8.4 27.1-38.6 21.2-74.5-4.2-25.7-21.2-48.7-50.6-68.3-6.1-4.1-7.7-12.3-3.6-18.3 4.1-6.1 12.3-7.7 18.3-3.6 35.7 23.9 56.6 52.8 62 86 7.6 46.5-18.3 84.4-26.4 95-23.3 30.2-47 36.2-64.3 40.5-17.9 4.5-23.4 5.9-23.4 34.8 0 145.8 152.4 264.4 339.7 264.4S850 732 850 586.2c0-28.9-5.4-30.3-23.3-34.8-17.3-4.3-41-10.3-64.2-40.5-8.1-10.5-34-48.5-26.4-95 5.4-33.2 26.3-62.2 62-86 6.1-4.1 14.3-2.4 18.3 3.6 4.1 6.1 2.4 14.3-3.6 18.3-29.4 19.6-46.4 42.6-50.6 68.3-5.9 36 14.8 66.2 21.2 74.6 17.7 22.9 34.7 27.2 49.7 31 25.4 6.4 43.4 14.4 43.4 60.4 0 160.5-164.3 291-366.2 291z" fill="#000202" p-id="2032"></path><path d="M172.3 505.9c-40.4 0-73.2-32.7-73.2-73s32.8-73 73.2-73c7.3 0 13.2 5.9 13.2 13.2s-5.9 13.2-13.2 13.2c-25.8 0-46.7 20.9-46.7 46.5 0 25.7 21 46.5 46.7 46.5 7.3 0 13.2 5.9 13.2 13.2s-5.9 13.4-13.2 13.4z" fill="#000202" p-id="2033"></path><path d="M845.9 506.1c-7.3 0-13.2-5.9-13.2-13.2s5.9-13.2 13.2-13.2c25.8 0 46.8-20.9 46.8-46.5s-21-46.5-46.8-46.5c-7.3 0-13.2-5.9-13.2-13.2s5.9-13.2 13.2-13.2c40.4 0 73.2 32.7 73.2 73s-32.8 72.8-73.2 72.8z" fill="#000202" p-id="2034"></path><path d="M318.9 281.1c-18.4 0-33.3-14.9-33.3-33.3 0-18.3 15-33.3 33.3-33.3 18.4 0 33.3 14.9 33.3 33.3 0.1 18.3-14.9 33.3-33.3 33.3z m0-40.1c-3.8 0-6.9 3.1-6.9 6.8 0 3.8 3.1 6.8 6.9 6.8s6.9-3.1 6.9-6.8c0-3.8-3.1-6.8-6.9-6.8z" fill="#F4702A" p-id="2035"></path><path d="M511.9 252.2h-70c-7.3 0-13.2-5.9-13.2-13.2 0-7.3 5.9-13.2 13.2-13.2h70c7.3 0 13.2 5.9 13.2 13.2 0 7.3-5.9 13.2-13.2 13.2z" fill="#FF8E31" p-id="2036"></path><path d="M587.3 274h-99.5c-7.3 0-13.2-5.9-13.2-13.2 0-7.3 5.9-13.2 13.2-13.2h99.5c7.3 0 13.2 5.9 13.2 13.2 0 7.3-5.9 13.2-13.2 13.2z" fill="#F4702A" p-id="2037"></path><path d="M700.2 291.3c-3.4 0-6.8-1.3-9.3-3.9l-27.9-27.8c-2.5-2.5-3.9-5.9-3.9-9.4s1.4-6.9 3.9-9.4l27.9-27.8c5.2-5.1 13.5-5.1 18.7 0l27.9 27.8c2.5 2.5 3.9 5.9 3.9 9.4s-1.4 6.9-3.9 9.4L709.6 287.4c-2.7 2.6-6.1 3.9-9.4 3.9z m-9.2-41l9.1 9.1 9.1-9.1-9.1-9.1-9.1 9.1z" fill="#FF8E31" p-id="2038"></path></svg>