<?xml version="1.0" standalone="no"?><!DOCTYPE svg PUBLIC "-//W3C//DTD SVG 1.1//EN" "http://www.w3.org/Graphics/SVG/1.1/DTD/svg11.dtd"><svg t="1626776720987" class="icon" viewBox="0 0 1024 1024" version="1.1" xmlns="http://www.w3.org/2000/svg" p-id="612" xmlns:xlink="http://www.w3.org/1999/xlink" width="200" height="200"><defs><style type="text/css"></style></defs><path d="M189.64176103 179.7555991m60.00626983 0l488.37219304 0q60.00626981 0 60.0062691 60.00626909l0 583.02043622q0 60.00626981-60.0062691 60.00626981l-488.37219304 0q-60.00626981 0-60.00626983-60.00626981l0-583.02043622q0-60.00626981 60.00626983-60.00626909Z" fill="#FBCB3B" p-id="613"></path><path d="M686.73417499 203.04933973c0 8.44149218-5.45511537 15.29025044-11.94550793 15.29025045H313.07867945c-6.6894843 0-12.14459966-6.84875827-12.14460039-15.29025045V156.50167622C301.13317078 148.06018405 306.38919442 141.21142578 313.07867945 141.21142578h361.51089586c6.6894843 0 11.94550793 6.84875827 11.94550793 15.29025044z" fill="#FF9C15" p-id="614"></path><path d="M623.6618921 359.4558606H330.51912123a19.90918036 19.90918036 0 0 1 1e-8-39.45999574H623.6618921a19.90918036 19.90918036 0 1 1 0 39.45999574zM623.6618921 566.67060919H330.51912123a19.90918036 19.90918036 0 0 1 1e-8-39.45999574H623.6618921a19.90918036 19.90918036 0 1 1 0 39.45999574zM623.6618921 773.8455393H330.51912123a19.71008863 19.71008863 0 0 1 1e-8-39.42017653H623.6618921a19.90918036 19.90918036 0 1 1 0 39.42017653z" fill="#FFFFFF" p-id="615"></path></svg>