<?xml version="1.0" standalone="no"?><!DOCTYPE svg PUBLIC "-//W3C//DTD SVG 1.1//EN" "http://www.w3.org/Graphics/SVG/1.1/DTD/svg11.dtd"><svg t="1626776007103" class="icon" viewBox="0 0 1024 1024" version="1.1" xmlns="http://www.w3.org/2000/svg" p-id="18746" xmlns:xlink="http://www.w3.org/1999/xlink" width="200" height="200"><defs><style type="text/css"></style></defs><path d="M447.786667 63.68c12.373333-13.866667 114.026667-27.093333 128.533333 0-42.88 0.106667-85.653333 0.106667-128.533333 0z" fill="#8C6531" opacity=".58" p-id="18747"></path><path d="M370.453333 80.213333c24.96-8.853333 50.453333-18.133333 77.333334-16.533333 42.88 0.106667 85.653333 0.106667 128.533333 0 30.4-1.92 59.413333 9.28 86.293333 22.506667-15.893333 9.493333-23.146667 25.386667-25.28 43.2-7.466667-42.986667-58.773333-44.8-93.44-43.946667-49.066667 5.12-112.64-20.266667-150.506666 22.613333-7.786667-9.173333-15.466667-18.453333-22.933334-27.84z" fill="#E8AD54" opacity=".97" p-id="18748"></path><path d="M245.546667 149.653333c4.373333-64.213333 68.906667-88.64 124.906666-69.44 7.466667 9.386667 15.146667 18.666667 22.933334 27.84-2.24 30.186667-18.666667 33.706667-41.706667 16.746667-28.373333-21.226667-52.48 8.853333-74.026667 24.64-8 0.106667-24.106667 0.213333-32.106666 0.213333z" fill="#A24816" opacity=".95" p-id="18749"></path><path d="M662.613333 86.186667c50.026667-32.533333 121.493333 4.373333 115.84 64.106666-7.466667-0.746667-22.4-2.133333-29.76-2.88-24.213333-56.426667-82.453333-4.586667-111.36-18.026666 2.133333-17.813333 9.386667-33.706667 25.28-43.2z" fill="#A44714" opacity=".97" p-id="18750"></path><path d="M393.386667 108.053333c37.866667-42.88 101.44-17.493333 150.506666-22.613333 34.666667-0.853333 85.973333 0.96 93.44 43.946667 28.906667 13.44 87.146667-38.4 111.36 18.026666 95.573333 82.986667 184.96 190.826667 183.786667 324.48 3.306667 64.746667-77.44-37.12-111.04-1.813333-40.533333-0.213333-122.24 31.36-82.453333 81.28 49.173333 46.186667 133.12 30.613333 191.146666 5.12 9.066667 61.973333-20.373333 117.546667-46.613333 170.773333-31.36-25.493333-62.506667-51.306667-91.306667-79.573333-32-74.453333-114.346667 0.64-101.866666 58.773333-48.853333 14.933333-98.56-5.226667-147.093334 6.933334 12.373333-39.253333 27.946667-77.44 42.133334-116.16 5.546667-25.92 40-64.426667 8.746666-83.626667-58.88 2.986667-124.053333-15.786667-180.16 8-13.973333 10.666667-18.24 28.586667-25.813333 43.52-54.826667-77.333333-144.106667-208.533333-67.84-297.493333 13.12-5.866667 137.813333 13.973333 108.266667-25.28-50.56-8.64-101.866667-8.106667-152.96-9.6 39.573333-26.24 36.373333-85.866667 76.053333-107.946667 23.04 16.96 39.466667 13.44 41.706667-16.746667M586.666667 245.44c10.24 49.28 182.933333 30.933333 192.106666 0.106667-35.413333-29.333333-157.12-11.84-192.106666-0.106667z" fill="#FCE777" p-id="18751"></path><path d="M277.653333 149.44c21.546667-15.786667 45.653333-45.866667 74.026667-24.64-39.68 22.08-36.48 81.706667-76.053333 107.946667-10.88 2.986667-21.546667 6.506667-32 10.666666-29.76 28.906667 51.2 20.053333 76.693333 24.213334-76.266667 88.96 13.013333 220.16 67.84 297.493333 7.573333-14.933333 11.84-32.853333 25.813333-43.52 7.146667 23.146667 14.4 46.186667 22.826667 68.8 27.84 45.226667 39.253333 187.306667 106.453333 122.986667 48.533333-12.16 98.24 8 147.093334-6.933334 13.013333 12.693333 25.813333 32 45.973333 20.053334 67.52 27.093333 41.28 91.84 32.32 145.173333-47.36 41.6-124.8 72-192.426667 77.973333-42.88-0.106667-85.653333-0.106667-128.533333 0-66.88-7.253333-146.56-34.026667-192.533333-78.4-10.666667-54.72-34.773333-116.8 30.506666-143.573333 106.24 39.36 17.92-203.306667-43.413333-81.173333-27.413333 24-54.72 48.32-83.093333 71.253333-49.6-27.52-62.933333-94.72-69.12-147.733333 63.68-6.293333 162.133333 32.64 197.76-37.44-18.986667-79.146667-129.173333-71.146667-191.04-45.12-31.04-133.546667 82.773333-258.24 180.906666-338.026667z" fill="#FCCB71" p-id="18752"></path><path d="M74.453333 437.013333C85.333333 323.733333 153.706667 214.506667 245.546667 149.653333c8 0 24.106667-0.106667 32.106666-0.213333-98.133333 79.786667-211.946667 204.48-180.906666 338.026667 61.866667-26.026667 172.053333-34.026667 191.04 45.12-35.626667 70.08-134.08 31.146667-197.76 37.44 6.186667 53.013333 19.52 120.213333 69.12 147.733333-9.066667 7.146667-18.453333 13.973333-27.626667 21.013333-29.653333-49.066667-54.506667-104.746667-57.173333-162.666666 0.213333-46.4 0.32-92.693333 0.106666-139.093334z" fill="#EC9C52" p-id="18753"></path><path d="M748.693333 147.413333c7.36 0.746667 22.293333 2.133333 29.76 2.88 90.666667 64.426667 160.746667 173.333333 171.2 286.933334-0.213333 46.293333-0.32 92.693333-0.106666 139.093333-2.346667 58.133333-27.946667 113.493333-57.173334 162.986667-2.133333-2.986667-6.613333-9.066667-8.853333-12.053334 26.24-53.226667 55.68-108.8 46.613333-170.773333-58.026667 25.493333-141.973333 41.066667-191.146666-5.12-39.786667-49.92 41.92-81.493333 82.453333-81.28 33.6-35.306667 114.346667 66.56 111.04 1.813333 1.173333-133.653333-88.213333-241.493333-183.786667-324.48z" fill="#ECA654" p-id="18754"></path><path d="M243.626667 243.413333c10.453333-4.16 21.12-7.68 32-10.666666 51.093333 1.493333 102.4 0.96 152.96 9.6-61.653333 1.386667-123.306667 1.386667-184.96 1.066666z" fill="#92824C" p-id="18755"></path><path d="M586.666667 245.44c34.986667-11.733333 156.693333-29.226667 192.106666 0.106667C714.666667 245.333333 650.666667 245.333333 586.666667 245.44z" fill="#958D4D" p-id="18756"></path><path d="M320.32 267.626667c-25.493333-4.16-106.453333 4.693333-76.693333-24.213334 61.653333 0.32 123.306667 0.32 184.96-1.066666 29.546667 39.253333-95.146667 19.413333-108.266667 25.28z" fill="#302E26" p-id="18757"></path><path d="M586.666667 245.44c64-0.106667 128-0.106667 192.106666 0.106667-9.173333 30.826667-181.866667 49.173333-192.106666-0.106667z" fill="#2F2E25" p-id="18758"></path><path d="M74.346667 576.106667C59.946667 557.866667 48.64 458.666667 74.453333 437.013333c0.213333 46.4 0.106667 92.693333-0.106666 139.093334z" fill="#996D35" opacity=".64" p-id="18759"></path><path d="M949.653333 437.226667c14.293333 18.24 25.706667 117.44-0.106666 139.093333-0.213333-46.4-0.106667-92.8 0.106666-139.093333z" fill="#996E35" opacity=".64" p-id="18760"></path><path d="M413.973333 521.6c56.106667-23.786667 121.28-5.013333 180.16-8 31.253333 19.2-3.2 57.706667-8.746666 83.626667-46.4-28.266667-99.093333-16.32-148.586667-6.826667-8.426667-22.613333-15.68-45.653333-22.826667-68.8z" fill="#832114" p-id="18761"></path><path d="M436.8 590.4c49.493333-9.493333 102.186667-21.44 148.586667 6.826667-14.186667 38.72-29.76 76.906667-42.133334 116.16-67.2 64.32-78.613333-77.76-106.453333-122.986667z" fill="#E16645" p-id="18762"></path><path d="M242.24 646.506667c61.333333-122.133333 149.653333 120.533333 43.413333 81.173333 28.266667-45.866667 10.133333-87.786667-43.413333-81.173333z" fill="#DD9746" p-id="18763"></path><path d="M690.346667 706.453333c-12.48-58.133333 69.866667-133.226667 101.866666-58.773333-54.08-8.426667-87.36 23.04-55.893333 78.826667-20.16 11.946667-32.96-7.36-45.973333-20.053334z" fill="#D59744" p-id="18764"></path><path d="M159.146667 717.76c28.373333-22.933333 55.68-47.253333 83.093333-71.253333 53.546667-6.613333 71.68 35.306667 43.413333 81.173333-65.28 26.773333-41.173333 88.853333-30.506666 143.573333-30.613333 62.72-117.653333 112.853333-173.12 49.28-27.733333-63.253333 18.453333-127.68 49.493333-181.76 9.173333-7.04 18.56-13.866667 27.626667-21.013333m79.68-42.666667C167.573333 732.48 81.493333 800.64 97.6 903.466667c52.8 78.72 174.4-31.573333 126.08-103.466667-48.746667-62.08 156.16-128 15.146667-124.906667zM736.32 726.506667c-31.466667-55.786667 1.813333-87.253333 55.893333-78.826667 28.8 28.266667 59.946667 54.08 91.306667 79.573333 2.24 2.986667 6.72 9.066667 8.853333 12.053334 42.453333 53.333333 101.76 174.933333 10.56 207.36-60.693333 23.04-101.013333-34.773333-134.293333-74.986667 8.96-53.333333 35.2-118.08-32.32-145.173333m-1.92-54.186667c6.613333 37.226667 49.28 52.693333 65.173333 85.546667 29.973333 33.173333-38.186667 72.213333-3.946666 110.08 20.693333 61.226667 106.346667 85.546667 140.8 25.28-2.453333-105.386667-97.386667-217.706667-202.026667-220.906667z" fill="#F3A31D" opacity=".96" p-id="18765"></path><path d="M238.826667 675.093333C379.84 672 174.933333 737.92 223.68 800c48.32 71.893333-73.28 182.186667-126.08 103.466667-16.106667-102.826667 69.973333-170.986667 141.226667-228.373334z" fill="#FFDF6C" p-id="18766"></path><path d="M734.4 672.32c104.64 3.2 199.573333 115.52 202.026667 220.906667-34.453333 60.266667-120.106667 35.946667-140.8-25.28-34.24-37.866667 33.92-76.906667 3.946666-110.08-15.893333-32.853333-58.56-48.32-65.173333-85.546667z" fill="#FFDE6B" p-id="18767"></path><path d="M447.68 949.653333c42.88-0.106667 85.653333-0.106667 128.533333 0-12.373333 13.866667-114.026667 27.093333-128.533333 0z" fill="#9B6F36" opacity=".65" p-id="18768"></path></svg>